<svg xmlns="http://www.w3.org/2000/svg" version="1.1" viewBox="0.00 0.00 220.00 103.00" width="220.00" height="103.00">
<path fill="#a9c2da" d="&#10;  M 130.94 66.64&#10;  Q 130.97 68.40 131.86 66.88&#10;  C 139.93 53.03 147.98 42.42 158.82 31.46&#10;  Q 165.67 24.53 171.88 20.30&#10;  C 184.06 11.99 196.78 8.04 211.31 5.11&#10;  Q 213.39 4.69 214.78 7.25&#10;  Q 214.95 7.55 214.98 7.89&#10;  A 4.03 3.99 81.1 0 1 211.83 12.25&#10;  C 199.01 14.94 188.22 19.00 177.40 27.05&#10;  C 166.93 34.84 157.38 47.73 151.11 58.58&#10;  Q 145.84 67.70 141.01 77.14&#10;  Q 138.28 82.47 133.54 87.94&#10;  Q 130.28 91.69 126.11 89.16&#10;  C 123.03 87.30 119.22 83.72 118.97 79.91&#10;  Q 118.81 77.45 118.71 74.83&#10;  Q 118.66 73.56 117.84 74.53&#10;  C 108.71 85.31 97.07 95.33 83.50 98.55&#10;  C 75.26 100.50 64.46 95.82 61.20 87.97&#10;  Q 61.05 87.62 60.69 87.73&#10;  Q 52.82 90.04 43.92 90.36&#10;  C 30.10 90.87 19.48 90.34 6.68 85.23&#10;  C 3.20 83.84 1.35 80.27 3.23 76.80&#10;  C 5.29 73.02 8.87 72.87 12.47 74.38&#10;  Q 20.85 77.89 30.14 78.19&#10;  Q 45.80 78.71 59.29 75.21&#10;  A 0.83 0.83 0.0 0 0 59.90 74.48&#10;  Q 60.96 60.75 66.46 47.19&#10;  C 71.69 34.31 86.36 18.12 101.53 29.21&#10;  C 108.74 34.48 109.04 46.41 105.72 53.79&#10;  C 100.28 65.89 86.94 75.52 75.13 81.76&#10;  A 0.78 0.77 48.6 0 0 75.05 83.08&#10;  C 80.53 86.94 87.81 83.12 92.31 79.78&#10;  C 104.99 70.35 116.95 57.82 118.57 41.17&#10;  Q 119.02 36.60 119.79 31.99&#10;  C 121.20 23.54 133.51 23.69 133.87 32.59&#10;  C 134.06 37.13 133.26 41.33 132.15 45.71&#10;  Q 131.50 48.29 131.32 51.00&#10;  Q 130.78 59.11 130.94 66.64&#10;  Z&#10;  M 76.09 66.96&#10;  C 83.93 61.87 92.37 55.91 94.22 46.72&#10;  Q 94.84 43.61 93.94 40.94&#10;  A 1.74 1.73 -20.1 0 0 91.65 39.88&#10;  Q 85.26 42.39 81.67 48.68&#10;  Q 77.28 56.35 74.33 67.12&#10;  A 0.43 0.42 84.9 0 0 74.92 67.62&#10;  Q 75.52 67.33 76.09 66.96&#10;  Z"/>
</svg>